<svg xmlns="http://www.w3.org/2000/svg" viewBox="0 0 241.925 41.612">
  <defs>
    <style>
      .cls-1 {
        fill: #ec1c24;
      }

      .cls-2 {
        fill: #fff;
      }
    </style>
  </defs>
  <g id="Group_58" data-name="Group 58" transform="translate(-204 476)">
    <rect id="XMLID_60_" class="cls-1" width="2.673" height="41.612" transform="translate(327.618 -476)"/>
    <path id="XMLID_58_" class="cls-2" d="M401.02,30.2l-.474.981a4.419,4.419,0,0,0-2.233-.677c-.913,0-1.624.338-1.624,1.116,0,1.827,4.635.88,4.635,3.857,0,1.624-1.455,2.368-3.045,2.368a4.7,4.7,0,0,1-3.18-1.15l.474-.913a4.139,4.139,0,0,0,2.74,1.049c.981,0,1.759-.372,1.793-1.184.034-2-4.6-.981-4.567-3.924,0-1.59,1.353-2.233,2.876-2.233A4.434,4.434,0,0,1,401.02,30.2Z" transform="translate(-57.434 -495.514)"/>
    <path id="XMLID_56_" class="cls-2" d="M421.942,33.442a3.524,3.524,0,0,1-1.861.643c-1.218,0-2.1-.71-2.1-2.368V26.98H416.8V26h1.184V23.8H419.2V26h2.639v1.015H419.2v4.5c0,1.015.406,1.387,1.116,1.387a2.28,2.28,0,0,0,1.319-.44Z" transform="translate(-71.793 -491.748)"/>
    <path id="XMLID_53_" class="cls-2" d="M442.99,33.66a4.2,4.2,0,1,1-4.2-4.161A3.969,3.969,0,0,1,442.99,33.66Zm-7.172,0a2.979,2.979,0,1,0,2.977-3.079A2.906,2.906,0,0,0,435.818,33.66Z" transform="translate(-83.571 -495.519)"/>
    <path id="XMLID_50_" class="cls-2" d="M474.424,33.6a3.875,3.875,0,0,1-3.958,4.161,3.44,3.44,0,0,1-3.214-1.827v4.838H466V29.434h1.218v1.793A3.459,3.459,0,0,1,470.4,29.4,3.936,3.936,0,0,1,474.424,33.6Zm-1.252,0a2.962,2.962,0,1,0-5.92,0,2.962,2.962,0,1,0,5.92,0Z" transform="translate(-104.348 -495.454)"/>
    <path id="XMLID_47_" class="cls-2" d="M513.653,36.6a3.667,3.667,0,0,1-3.045,1.353,2.568,2.568,0,0,1-2.808-2.537c0-1.455,1.15-2.368,3.112-2.368h2.706v-.474c0-1.218-.744-1.928-2.233-1.928a4.583,4.583,0,0,0-2.639.947l-.507-.88a5.563,5.563,0,0,1,3.383-1.116c2.03,0,3.18,1.083,3.18,2.876v5.481h-1.184V36.6Zm0-1.59v-.981h-2.571c-1.387,0-2.1.44-2.1,1.319,0,.913.744,1.522,1.895,1.522A2.71,2.71,0,0,0,513.653,35.013Z" transform="translate(-132.006 -495.586)"/>
    <path id="XMLID_44_" class="cls-2" d="M545.39,27.044a3.875,3.875,0,0,1-3.958,4.161,3.44,3.44,0,0,1-3.214-1.827v1.793H537V19.5h1.218v5.176a3.459,3.459,0,0,1,3.18-1.827A3.91,3.91,0,0,1,545.39,27.044Zm-1.252,0a2.963,2.963,0,1,0-5.92,0,2.963,2.963,0,1,0,5.92,0Z" transform="translate(-151.328 -488.903)"/>
    <path id="XMLID_42_" class="cls-2" d="M574.777,37.789h-1.218V35.928a3.2,3.2,0,0,1-3.146,1.928,2.925,2.925,0,0,1-3.112-3.214V29.5h1.218v4.77a2.142,2.142,0,0,0,2.3,2.334,2.727,2.727,0,0,0,2.706-3.045V29.5h1.218v8.289Z" transform="translate(-171.377 -495.52)"/>
    <path id="XMLID_40_" class="cls-2" d="M601.02,30.2l-.474.981a4.42,4.42,0,0,0-2.233-.677c-.913,0-1.624.338-1.624,1.116,0,1.827,4.635.88,4.635,3.857,0,1.624-1.455,2.368-3.045,2.368a4.7,4.7,0,0,1-3.18-1.15l.474-.913a4.139,4.139,0,0,0,2.74,1.049c.981,0,1.759-.372,1.793-1.184.034-2-4.6-.981-4.567-3.924,0-1.59,1.353-2.233,2.876-2.233A4.5,4.5,0,0,1,601.02,30.2Z" transform="translate(-189.772 -495.514)"/>
    <path id="XMLID_37_" class="cls-2" d="M624.784,34h-6.766a2.9,2.9,0,0,0,3.011,2.639,3.493,3.493,0,0,0,2.571-1.049l.677.71a4.377,4.377,0,0,1-3.349,1.387,3.979,3.979,0,0,1-4.127-4.2,3.971,3.971,0,0,1,4.094-4.2C623.6,29.334,624.919,31.195,624.784,34Zm-1.116-1.015a2.587,2.587,0,0,0-2.774-2.6,2.827,2.827,0,0,0-2.909,2.6Z" transform="translate(-204.131 -495.388)"/>
    <path id="XMLID_35_" class="cls-2" d="M659.2,21.939v1.083h2.368v1.015H659.2v7h-1.218V24H656.9V22.988h1.083v-.913a2.62,2.62,0,0,1,2.673-2.774,3.061,3.061,0,0,1,1.793.575l-.508.981a2.249,2.249,0,0,0-1.252-.44A1.448,1.448,0,0,0,659.2,21.939Z" transform="translate(-230.665 -488.771)"/>
    <path id="XMLID_32_" class="cls-2" d="M679.89,33.66a4.2,4.2,0,1,1-4.2-4.161A3.987,3.987,0,0,1,679.89,33.66Zm-7.172,0a2.979,2.979,0,1,0,2.977-3.079A2.906,2.906,0,0,0,672.718,33.66Z" transform="translate(-240.325 -495.519)"/>
    <path id="XMLID_30_" class="cls-2" d="M703.918,31.295A3.1,3.1,0,0,1,706.9,29.4v1.252a2.735,2.735,0,0,0-2.977,2.673v4.4H702.7V29.434h1.218Z" transform="translate(-260.97 -495.454)"/>
    <path id="XMLID_27_" class="cls-2" d="M403.719,73.039h-6.326a2.558,2.558,0,0,0,2.6,2.1,3.216,3.216,0,0,0,2.368-.981l.947,1.015a4.575,4.575,0,0,1-3.451,1.421,4.022,4.022,0,0,1-4.263-4.229,4.077,4.077,0,0,1,4.229-4.263C402.738,68.1,403.922,70.028,403.719,73.039Zm-1.59-1.319a2.143,2.143,0,0,0-2.334-2.165,2.373,2.373,0,0,0-2.436,2.165Z" transform="translate(-57.765 -521.061)"/>
    <path id="XMLID_25_" class="cls-2" d="M423.548,76.656,420.3,68.3h1.895l2.334,6.6,2.3-6.6h1.793l-3.214,8.356Z" transform="translate(-74.108 -521.193)"/>
    <path id="XMLID_22_" class="cls-2" d="M453.519,73.039h-6.326a2.558,2.558,0,0,0,2.6,2.1,3.216,3.216,0,0,0,2.368-.981l.947,1.015a4.575,4.575,0,0,1-3.451,1.421,4.022,4.022,0,0,1-4.263-4.229,4.077,4.077,0,0,1,4.229-4.263C452.538,68.1,453.756,70.028,453.519,73.039Zm-1.556-1.319a2.143,2.143,0,0,0-2.334-2.165,2.373,2.373,0,0,0-2.436,2.165Z" transform="translate(-90.717 -521.061)"/>
    <path id="XMLID_20_" class="cls-2" d="M476.827,69.825a3.064,3.064,0,0,1,2.909-1.725v1.725a2.544,2.544,0,0,0-2.909,2.334v4.364H475V68.168h1.793v1.658Z" transform="translate(-110.303 -521.061)"/>
    <path id="XMLID_18_" class="cls-2" d="M495.069,77.873a2.786,2.786,0,0,1-2.706,2,2.894,2.894,0,0,1-1.928-.71l.778-1.387a1.878,1.878,0,0,0,1.083.406,1.421,1.421,0,0,0,1.286-.913l.271-.643L490.4,68.4h1.861l2.5,6.326L497.1,68.4h1.793Z" transform="translate(-120.493 -521.26)"/>
    <path id="XMLID_15_" class="cls-2" d="M524.628,72.329a4.366,4.366,0,1,1-4.364-4.229A4.1,4.1,0,0,1,524.628,72.329Zm-6.9.034a2.559,2.559,0,1,0,2.571-2.706A2.506,2.506,0,0,0,517.727,72.363Z" transform="translate(-137.366 -521.061)"/>
    <path id="XMLID_13_" class="cls-2" d="M555.45,71.314v5.21h-1.793v-4.7a1.858,1.858,0,0,0-2-2.03,2.333,2.333,0,0,0-2.368,2.267v4.466H547.5V68.168h1.793v1.59a3.175,3.175,0,0,1,3.079-1.658A2.917,2.917,0,0,1,555.45,71.314Z" transform="translate(-158.276 -521.061)"/>
    <path id="XMLID_10_" class="cls-2" d="M584.019,73.039h-6.326a2.558,2.558,0,0,0,2.6,2.1,3.216,3.216,0,0,0,2.368-.981l.947,1.015a4.575,4.575,0,0,1-3.451,1.421,4.022,4.022,0,0,1-4.263-4.229,4.077,4.077,0,0,1,4.229-4.263C583.038,68.1,584.222,70.028,584.019,73.039Zm-1.59-1.319a2.143,2.143,0,0,0-2.334-2.165,2.373,2.373,0,0,0-2.436,2.165Z" transform="translate(-177.068 -521.061)"/>
    <path id="XMLID_8_" class="cls-2" d="M12.72,45.429A19.369,19.369,0,0,1,0,40.49l1.421-2.808a17.672,17.672,0,0,0,11.367,4.6c5.21,0,8.458-2.165,8.458-5.65.034-4.432-4.263-5.684-8.83-7.037C7.24,28.04,1.895,26.45,1.895,20.158a7.356,7.356,0,0,1,3.112-6.123A14.122,14.122,0,0,1,13.431,11.7a20.008,20.008,0,0,1,10.454,2.943L22.531,17.62a18.455,18.455,0,0,0-9.337-2.706c-4.77,0-7.713,1.895-7.713,4.939,0,4.3,4.229,5.582,8.728,6.935,5.244,1.59,10.657,3.214,10.657,9.676-.034,5.345-4.905,8.965-12.145,8.965Z" transform="translate(204 -483.742)"/>
    <path id="XMLID_5_" class="cls-2" d="M95.256,11.6h3.586l15.089,33.729H110.48L106.623,36.6H87.306l-3.857,8.728H80.1Zm1.353,3.958L88.693,33.59h16.645L97.32,15.558Z" transform="translate(150.999 -483.676)"/>
    <path id="XMLID_4_" class="cls-2" d="M195.4,11.6h21.178v3.045h-18v12.89h16.137v3.011H198.58V45.329H195.4Z" transform="translate(74.706 -483.676)"/>
    <path id="XMLID_3_" class="cls-2" d="M273.3,11.6h22.633v3.045H276.48V26.722h17.389v3.045H276.48V42.352h20.1v2.977H273.3Z" transform="translate(23.16 -483.676)"/>
  </g>
</svg>
